<svg width="916.28076171875px" height="336.8px" xmlns="http://www.w3.org/2000/svg" viewBox="-208.140380859375 -93.4 916.28076171875 336.8" style="background: rgba(0, 0, 0, 0);" preserveAspectRatio="xMidYMid"><defs><filter id="editing-extrusion" x="-100%" y="-100%" width="300%" height="300%"><feFlood result="color1" flood-color="#444"></feFlood><feConvolveMatrix order="8,8" divisor="1" kernelMatrix="1 0 0 0 0 0 0 0 0 1 0 0 0 0 0 0 0 0 1 0 0 0 0 0 0 0 0 1 0 0 0 0 0 0 0 0 1 0 0 0 0 0 0 0 0 1 0 0 0 0 0 0 0 0 1 0 0 0 0 0 0 0 0 1" in="SourceAlpha" result="extrude"></feConvolveMatrix><feComposite in="color1" in2="extrude" result="comp-extrude" operator="in"></feComposite><feOffset dx="4" dy="4" in="comp-extrude" result="offset-extrude"></feOffset><feMerge><feMergeNode in="offset-extrude"></feMergeNode><feMergeNode in="SourceGraphic"></feMergeNode></feMerge></filter></defs><g filter="url(#editing-extrusion)"><g transform="translate(-76.479597479105, 163)"><path d="M81.40-92.40L81.40-92.40L81.40-92.40Q84.40-98.40 84.40-104L84.40-104L84.40-104Q84.40-109.60 83.80-112.70L83.80-112.70L83.80-112.70Q83.20-115.80 81.80-118.20L81.80-118.20L81.80-118.20Q78.80-123.40 72.80-123.40L72.80-123.40L72.80-123.40Q65.40-123.40 59.40-118L59.40-118L59.40-118Q53-112.40 53-103.60L53-103.60L53-103.60Q53-98 56.90-93.70L56.90-93.70L56.90-93.70Q60.80-89.40 66.80-85.40L66.80-85.40L66.80-85.40Q72.80-81.40 79.60-77.40L79.60-77.40L79.60-77.40Q86.40-73.40 92.40-68.60L92.40-68.60L92.40-68.60Q106.20-57.60 106.20-42.80L106.20-42.80L106.20-42.80Q106.20-32.80 100.90-24.30L100.90-24.30L100.90-24.30Q95.60-15.80 86.80-9.60L86.80-9.60L86.80-9.60Q67.60 4 42.20 4L42.20 4L42.20 4Q21.60 4 11-2.70L11-2.70L11-2.70Q0.40-9.40 0.40-19.60L0.40-19.60L0.40-19.60Q0.40-37.80 14.60-42.40L14.60-42.40L14.60-42.40Q18.60-43.80 24.70-43.80L24.70-43.80L24.70-43.80Q30.80-43.80 37.80-41.20L37.80-41.20L37.80-41.20Q34.60-33 34.60-25.60L34.60-25.60L34.60-25.60Q34.60-9.60 46-9.60L46-9.60L46-9.60Q53.40-9.60 59.50-15L59.50-15L59.50-15Q65.60-20.40 65.60-26.50L65.60-26.50L65.60-26.50Q65.60-32.60 61.70-37L61.70-37L61.70-37Q57.80-41.40 52-44.90L52-44.90L52-44.90Q46.20-48.40 39.50-51.80L39.50-51.80L39.50-51.80Q32.80-55.20 27-60L27-60L27-60Q13.40-71 13.40-88.60L13.40-88.60L13.40-88.60Q13.40-100 19-108.90L19-108.90L19-108.90Q24.60-117.80 33.60-123.80L33.60-123.80L33.60-123.80Q51.60-136 73.70-136L73.70-136L73.70-136Q95.80-136 106.50-129.40L106.50-129.40L106.50-129.40Q117.20-122.80 117.20-111.60L117.20-111.60L117.20-111.60Q117.20-101.80 109.60-95.60L109.60-95.60L109.60-95.60Q103-90.40 95-90.40L95-90.40L95-90.40Q87-90.40 81.40-92.40ZM165 4L165 4L165 4Q121 4 121-37.40L121-37.40L121-37.40Q121-66.80 137.20-85.80L137.20-85.80L137.20-85.80Q154.40-106 184.20-106L184.20-106L184.20-106Q205.80-106 216.80-96L216.80-96L216.80-96Q227.80-86 227.80-65L227.80-65L227.80-65Q227.80-33 210.60-14.40L210.60-14.40L210.60-14.40Q193.80 4 165 4ZM170.20-83L170.20-83L170.20-83Q167.80-77.60 165.90-69.50L165.90-69.50L165.90-69.50Q164-61.40 161.60-48.60L161.60-48.60L161.60-48.60Q159.20-35.80 159.20-20L159.20-20L159.20-20Q159.20-14.80 160.90-11.40L160.90-11.40L160.90-11.40Q162.60-8 167.20-8L167.20-8L167.20-8Q171.80-8 174.70-10.20L174.70-10.20L174.70-10.20Q177.60-12.40 179.80-17.60L179.80-17.60L179.80-17.60Q183.80-26.80 187-43.90L187-43.90L187-43.90Q190.20-61 190.50-68.40L190.50-68.40L190.50-68.40Q190.80-75.80 190.80-81.30L190.80-81.30L190.80-81.30Q190.80-86.80 189.20-90.40L189.20-90.40L189.20-90.40Q187.60-94 183.10-94L183.10-94L183.10-94Q178.60-94 175.60-91.20L175.60-91.20L175.60-91.20Q172.60-88.40 170.20-83ZM332.80-13.70L332.80-13.70L332.80-13.70Q324.40-5.20 312.90-0.60L312.90-0.60L312.90-0.60Q301.40 4 290 4L290 4L290 4Q278.60 4 274.60 2L274.60 2L268.40 36L227.80 40L255.40-102L288-105.40L285.40-91.60L285.40-91.60Q293.80-105.80 311.20-105.80L311.20-105.80L311.20-105.80Q330.80-105.80 341.20-93.20L341.20-93.20L341.20-93.20Q350.40-81.80 350.40-64.40L350.40-64.40L350.40-64.40Q350.40-47 345.80-34.60L345.80-34.60L345.80-34.60Q341.20-22.20 332.80-13.70ZM287.60-69.80L277-11.20L277-11.20Q281.20-7.60 286.40-7.60L286.40-7.60L286.40-7.60Q291.60-7.60 294.60-9.60L294.60-9.60L294.60-9.60Q297.60-11.60 299.80-15.60L299.80-15.60L299.80-15.60Q305.80-26.40 310.60-59.20L310.60-59.20L310.60-59.20Q312-68.80 312-78.20L312-78.20L312-78.20Q312-87.60 309.90-90.60L309.90-90.60L309.90-90.60Q307.80-93.60 303.80-93.60L303.80-93.60L303.80-93.60Q291.60-93.60 287.60-69.80L287.60-69.80ZM406 4L406 4L406 4Q362 4 362-37.40L362-37.40L362-37.40Q362-66.80 378.20-85.80L378.20-85.80L378.20-85.80Q395.40-106 425.20-106L425.20-106L425.20-106Q446.80-106 457.80-96L457.80-96L457.80-96Q468.80-86 468.80-65L468.80-65L468.80-65Q468.80-33 451.60-14.40L451.60-14.40L451.60-14.40Q434.80 4 406 4ZM411.20-83L411.20-83L411.20-83Q408.80-77.60 406.90-69.50L406.90-69.50L406.90-69.50Q405-61.40 402.60-48.60L402.60-48.60L402.60-48.60Q400.20-35.80 400.20-20L400.20-20L400.20-20Q400.20-14.80 401.90-11.40L401.90-11.40L401.90-11.40Q403.60-8 408.20-8L408.20-8L408.20-8Q412.80-8 415.70-10.20L415.70-10.20L415.70-10.20Q418.60-12.40 420.80-17.60L420.80-17.60L420.80-17.60Q424.80-26.80 428-43.90L428-43.90L428-43.90Q431.20-61 431.50-68.40L431.50-68.40L431.50-68.40Q431.80-75.80 431.80-81.30L431.80-81.30L431.80-81.30Q431.80-86.80 430.20-90.40L430.20-90.40L430.20-90.40Q428.60-94 424.10-94L424.10-94L424.10-94Q419.60-94 416.60-91.20L416.60-91.20L416.60-91.20Q413.60-88.40 411.20-83ZM543.20-56.20L543.20-56.20L543.20-56.20Q550.40-69 550.40-82L550.40-82L550.40-82Q550.40-90.60 544.20-90.60L544.20-90.60L544.20-90.60Q539.40-90.60 534.40-82.40L534.40-82.40L534.40-82.40Q529.20-74.20 527.60-63.60L527.60-63.60L517.20 0L475.80 4L496.20-102L529.20-106L525.60-85.80L525.60-85.80Q535.40-106 557.40-106L557.40-106L557.40-106Q569-106 575.30-100L575.30-100L575.30-100Q581.60-94 581.60-81.70L581.60-81.70L581.60-81.70Q581.60-69.40 573.50-61.60L573.50-61.60L573.50-61.60Q565.40-53.80 551.60-53.80L551.60-53.80L551.60-53.80Q545.60-53.80 543.20-56.20ZM588-20L588-20L588-20Q588-25.40 590.80-39L590.80-39L601.40-93L589.60-93L590.40-99L590.40-99Q614.40-106.20 637.60-123.80L637.60-123.80L647.20-123.80L642.40-102L658-102L656.20-93L640.80-93L630.60-39L630.60-39Q628-26.60 628-22.40L628-22.40L628-22.40Q628-12.80 636.40-10.80L636.40-10.80L636.40-10.80Q634.40-4 627.20 0L627.20 0L627.20 0Q620 4 609.80 4L609.80 4L609.80 4Q599.60 4 593.80-2.40L593.80-2.40L593.80-2.40Q588-8.80 588-20Z" fill="#ccc"></path></g></g><style>text {
  font-size: 64px;
  font-family: Arial Black;
  dominant-baseline: central;
  text-anchor: middle;
}</style></svg>